<mxfile host="app.diagrams.net" modified="2024-06-13T07:58:19.478Z" agent="Mozilla/5.0 (X11; Ubuntu; Linux x86_64; rv:126.0) Gecko/20100101 Firefox/126.0" etag="-PpwsUY64ty2lna483bt" version="24.5.4" type="github">
  <diagram name="Page-1" id="Ld4PYdzkBoFEQ_pxs4DG">
    <mxGraphModel dx="1834" dy="787" grid="0" gridSize="10" guides="1" tooltips="1" connect="1" arrows="1" fold="1" page="0" pageScale="1" pageWidth="850" pageHeight="1100" math="0" shadow="0">
      <root>
        <mxCell id="0" />
        <mxCell id="1" parent="0" />
        <mxCell id="VqYCvWoMnIH60Mb_KzOk-6" style="edgeStyle=none;curved=1;rounded=0;orthogonalLoop=1;jettySize=auto;html=1;entryX=0.5;entryY=0;entryDx=0;entryDy=0;fontSize=12;startSize=8;endSize=8;" edge="1" parent="1" source="VqYCvWoMnIH60Mb_KzOk-1" target="VqYCvWoMnIH60Mb_KzOk-5">
          <mxGeometry relative="1" as="geometry" />
        </mxCell>
        <mxCell id="VqYCvWoMnIH60Mb_KzOk-7" style="edgeStyle=none;curved=1;rounded=0;orthogonalLoop=1;jettySize=auto;html=1;entryX=0.5;entryY=0;entryDx=0;entryDy=0;fontSize=12;startSize=8;endSize=8;" edge="1" parent="1" source="VqYCvWoMnIH60Mb_KzOk-1" target="VqYCvWoMnIH60Mb_KzOk-4">
          <mxGeometry relative="1" as="geometry" />
        </mxCell>
        <mxCell id="VqYCvWoMnIH60Mb_KzOk-8" style="edgeStyle=none;curved=1;rounded=0;orthogonalLoop=1;jettySize=auto;html=1;entryX=0.5;entryY=1;entryDx=0;entryDy=0;fontSize=12;startSize=8;endSize=8;" edge="1" parent="1" source="VqYCvWoMnIH60Mb_KzOk-1" target="VqYCvWoMnIH60Mb_KzOk-3">
          <mxGeometry relative="1" as="geometry" />
        </mxCell>
        <mxCell id="VqYCvWoMnIH60Mb_KzOk-9" style="edgeStyle=none;curved=1;rounded=0;orthogonalLoop=1;jettySize=auto;html=1;entryX=0.5;entryY=1;entryDx=0;entryDy=0;fontSize=12;startSize=8;endSize=8;" edge="1" parent="1" source="VqYCvWoMnIH60Mb_KzOk-1" target="VqYCvWoMnIH60Mb_KzOk-2">
          <mxGeometry relative="1" as="geometry" />
        </mxCell>
        <mxCell id="VqYCvWoMnIH60Mb_KzOk-1" value="&lt;font style=&quot;font-size: 16px;&quot;&gt;BSP&lt;/font&gt;" style="rounded=0;whiteSpace=wrap;html=1;" vertex="1" parent="1">
          <mxGeometry x="147" y="158" width="160" height="80" as="geometry" />
        </mxCell>
        <mxCell id="VqYCvWoMnIH60Mb_KzOk-2" value="&lt;div&gt;&lt;font style=&quot;font-size: 16px;&quot;&gt;常用通讯总线&lt;br&gt;&lt;/font&gt;&lt;/div&gt;IIC SPI UAT USB CAN" style="rounded=0;whiteSpace=wrap;html=1;" vertex="1" parent="1">
          <mxGeometry x="-54" y="57" width="160" height="80" as="geometry" />
        </mxCell>
        <mxCell id="VqYCvWoMnIH60Mb_KzOk-3" value="&lt;div&gt;&lt;font style=&quot;font-size: 16px;&quot;&gt;系统基础管理&lt;/font&gt;&lt;/div&gt;电源管理 内存管理等" style="rounded=0;whiteSpace=wrap;html=1;" vertex="1" parent="1">
          <mxGeometry x="352" y="57" width="160" height="80" as="geometry" />
        </mxCell>
        <mxCell id="VqYCvWoMnIH60Mb_KzOk-4" value="&lt;div&gt;&lt;font style=&quot;font-size: 16px;&quot;&gt;算力单元&lt;/font&gt;&lt;/div&gt;cae npu venc vdec" style="rounded=0;whiteSpace=wrap;html=1;" vertex="1" parent="1">
          <mxGeometry x="352" y="273" width="160" height="80" as="geometry" />
        </mxCell>
        <mxCell id="VqYCvWoMnIH60Mb_KzOk-5" value="&lt;font style=&quot;font-size: 16px;&quot;&gt;GPIO、PWM&lt;/font&gt;" style="rounded=0;whiteSpace=wrap;html=1;" vertex="1" parent="1">
          <mxGeometry x="-54" y="268" width="160" height="80" as="geometry" />
        </mxCell>
      </root>
    </mxGraphModel>
  </diagram>
</mxfile>
